<svg xmlns="http://www.w3.org/2000/svg"  viewBox="0 0 30 30" width="30px" height="30px"><path fill="#fff" d="M28.7,2.5H15.81v24.12H28.7c0.458-0.016,0.816-0.401,0.8-0.859c0,0,0-0.001,0-0.001V3.36 c0.017-0.458-0.341-0.843-0.799-0.86C28.701,2.5,28.7,2.5,28.7,2.5z"/><path fill="#b7dbba" d="M17.5 29.5L0.5 25.65 0.5 3.1 17.5 0.63z"/><path fill="#fff" d="M9.14,16.34c-0.11-0.242-0.187-0.498-0.23-0.76l0,0c-0.066,0.27-0.153,0.534-0.26,0.79L6.67,20.5h-3 l3.6-6.13L4,8.74h3l1.61,3.38c0.147,0.321,0.261,0.656,0.34,1H9c0.06-0.22,0.18-0.55,0.35-1l1.8-3.34H14l-3.38,5.59l3.76,6.17h-3 L9.14,16.34z"/><path fill="#e0e9f0" d="M27 10h-6V7h6V10zM22 9h4V8h-4V9zM20 10L17.52 10 17.52 9 19 9 19 8 17.52 8 17.52 7 20 7zM27 14h-6v-3h6V14zM22 13h4v-1h-4V13zM20 14L17.52 14 17.52 13 19 13 19 12 17.52 12 17.52 11 20 11zM27 22h-6v-3h6V22zM22 21h4v-1h-4V21zM27 18h-6v-3h6V18zM22 17h4v-1h-4V17zM20 22L17.52 22 17.52 21 19 21 19 20 17.52 20 17.52 19 20 19zM20 18L17.52 18 17.52 17 19 17 19 16 17.52 16 17.52 15 20 15z"/><path fill="#5d9874" d="M14.39 21.04h-3c-.184 0-.354-.102-.441-.264l-2.036-3.801-1.793 3.74C7.038 20.89 6.862 21 6.67 21h-3c-.179 0-.345-.096-.434-.252-.089-.155-.088-.347.003-.501l3.455-5.883L3.563 8.743C3.477 8.588 3.479 8.399 3.569 8.247S3.823 8 4 8h3c.198 0 .376.116.457.297l1.529 3.439 1.717-3.421c.085-.169.258-.275.447-.275H14c.179 0 .344.096.433.25s.089.346 0 .5l-3.23 5.572 3.615 5.916c.094.154.098.348.009.505C14.738 20.942 14.571 21.04 14.39 21.04zM11.689 20.04h1.809l-3.305-5.409c-.096-.157-.098-.353-.006-.512l2.945-5.079h-1.674l-1.661 3.305c-.142.382-.257.697-.314.907C9.423 13.469 9.226 13.62 9 13.62c-.233 0-.485-.161-.537-.388-.071-.311-.175-.615-.307-.903L6.675 9H4.851l2.856 5.127c.086.155.084.344-.006.497L4.543 20h1.812l1.844-3.846c.086-.209.165-.449.226-.693.057-.231.27-.382.506-.381.237.01.435.186.473.42.034.214.097.422.185.618L11.689 20.04zM28.5 27h-11v-1h11c.275 0 .5-.225.5-.5v-22C29 3.224 28.775 3 28.5 3h-11V2h11C29.327 2 30 2.673 30 3.5v22C30 26.327 29.327 27 28.5 27z"/><path fill="#5d9874" d="M18,30.007L0,25.898V2.565l18-2.51V30.007z M1,25.102l16,3.651V1.205L1,3.435V25.102z"/></svg>